# xmcd
#
# Track frame offsets:
#	150
#	20460
#	36170
#	51415
#	73767
#	92100
#	109560
#	128602
#	145110
#	164460
#	182570
#	204547
#	222435
#	239675
#	255270
#	277675
#	296057
#	315905
#
# Disc length: 4446 seconds
#
# Revision: 2
# Processed by: cddbd v1.5.2PL0 Copyright (c) Steve Scherf et al.
# Submitted via: EasyCDDAExtractor 16.0.6.1
#
DISCID=04115c12
DTITLE=Branca Di Neve - Branca mete bronca Vol 1 e Vol 2
DYEAR=1900
DGENRE=Samba Rock
TTITLE0=Boca Louca
TTITLE1=Canaviá
TTITLE2=Falsa Magra
TTITLE3=Reprise
TTITLE4=Nêgo Dito
TTITLE5=A Cor De Deus
TTITLE6=Pensamento verde
TTITLE7=Kid Brilhantina
TTITLE8=Salgueiro É Uma Raiz
TTITLE9=Saudades Da Minha Preta
TTITLE10=Maria Inês
TTITLE11=Oi
TTITLE12=Diz
TTITLE13=Fico Louco
TTITLE14=Salve A Raça Negra
TTITLE15=Quer Moleza
TTITLE16=Garra Corinthiana
TTITLE17=Ciumeira
EXTD=Clássicos do Samba, Branca Di Neve Séries Dois momentos, 
EXTT0=
EXTT1=
EXTT2=
EXTT3=
EXTT4=
EXTT5=
EXTT6=
EXTT7=
EXTT8=
EXTT9=
EXTT10=
EXTT11=
EXTT12=
EXTT13=
EXTT14=
EXTT15=
EXTT16=
EXTT17=
PLAYORDER=
